<svg width="20" height="20" fill="none" xmlns="http://www.w3.org/2000/svg"><path d="M10 5 8.586 3.586A2 2 0 0 0 7.172 3H2a1 1 0 0 0-1 1v12a1 1 0 0 0 1 1h16a1 1 0 0 0 1-1V6a1 1 0 0 0-1-1h-8z" fill="#FFB900"/><path d="M10 5 8.586 6.414A2 2 0 0 1 7.172 7H1v9a1 1 0 0 0 1 1h16a1 1 0 0 0 1-1V6a1 1 0 0 0-1-1h-8z" fill="#FFD75E"/><path d="M10 5 8.586 6.414A2 2 0 0 1 7.172 7H1v9a1 1 0 0 0 1 1h16a1 1 0 0 0 1-1V6a1 1 0 0 0-1-1h-8z" fill="url(#a)"/><path d="M2 16.5c-.373 0-.71-.142-.973-.367.061.492.477.863.973.867h16c.505 0 .905-.38.973-.867-.262.226-.6.367-.973.367H2z" fill="#BF5712"/><path opacity=".4" d="M8.836 6.914 10.75 5H10L8.586 6.414A2 2 0 0 1 7.172 7H1v.5h6.422a2 2 0 0 0 1.414-.586z" fill="#fff"/><path fill-rule="evenodd" clip-rule="evenodd" d="M2.25 10h6.5a.25.25 0 0 1 .25.25v3.5a.25.25 0 0 1-.25.25h-6.5a.25.25 0 0 1-.25-.25V13h1v-2H2v-.75a.25.25 0 0 1 .25-.25zM6 13h2v-2H6v2zm4.75 0h-.5a.25.25 0 0 1-.25-.25v-1.5a.25.25 0 0 1 .25-.25h.5a.25.25 0 0 1 .25.25v1.5a.25.25 0 0 1-.25.25zm1.5 0h.5a.25.25 0 0 0 .25-.25v-1.5a.25.25 0 0 0-.25-.25h-.5a.25.25 0 0 0-.25.25v1.5c0 .138.112.25.25.25zm2.5 0h-.5a.25.25 0 0 1-.25-.25v-1.5a.25.25 0 0 1 .25-.25h.5a.25.25 0 0 1 .25.25v1.5a.25.25 0 0 1-.25.25zm1.5 0h.5a.25.25 0 0 0 .25-.25v-1.5a.25.25 0 0 0-.25-.25h-.5a.25.25 0 0 0-.25.25v1.5c0 .138.112.25.25.25zm2.5 0h-.5a.25.25 0 0 1-.25-.25v-1.5a.25.25 0 0 1 .25-.25h.5a.25.25 0 0 1 .25.25v1.5a.25.25 0 0 1-.25.25zM1 13h.75a.25.25 0 0 0 .25-.25v-1.5a.25.25 0 0 0-.25-.25H1v2z" fill="#BF5712"/><defs><linearGradient id="a" x1="1" y1="5" x2="1" y2="17" gradientUnits="userSpaceOnUse"><stop stop-color="#fff" stop-opacity=".01"/><stop offset=".999" stop-color="#FFD75E" stop-opacity=".3"/></linearGradient></defs></svg>